<svg xmlns="http://www.w3.org/2000/svg" viewBox="0 0 100 100"><style>circle{fill:#000}path{fill:#fff}@media (prefers-color-scheme: dark){circle{fill:#fff}path{fill:#000}}</style><circle cx="50" cy="50" r="50"/><path d="M81.987 49.438C85.43 29.805 73.262 7.06 50.942 13.92c-2.663.82-4.028 1.407-4.88 2.605-.854 1.197 4.039.098 9.21-.172s10.412 1.252 14.344 4.721c9.193 9.155 10.77 25.52 4.44 36.69-4.896 7.419-8.936-2.397-9.211-7.274-.19-3.361.594-6.879-.656-7.082-1.846-.3-4.126 4.648-7.617 7.044-2.012 1.38-4.353 2.936-6.81 2.55-.793-.217-.749-.808-.43-1.532.728-1.71 2.248-3.382 3.541-4.824 1.64-1.775 4.353-4.188 1.917-6.451-3.079-2.225-9.953-.54-13.55.13-2.553-5.421-6.144-14.217-7.588-16.41-1.454-2.208-5.302-.617-3.982 2.253 1.32 2.87 4.682 10.24 6.932 15.392-10.559 3.474-20.56 13.86-19.006 25.634 1.74 8.41 7.71 15.83 15.625 19.207 4.496 1.948 10.09.79 13.196-3.123 5.69-7.412 3.494-17.632 1.362-25.96 4.602 1.742 9.206-1.51 12.736-4.108 1.194 7.775 7.497 16.53 15.47 9.638 3.596-3.623 5.045-8.606 6.002-13.41zm-34.989-5.336c.639-.083 1.322-.15 1.962-.196-1.502 1.703-2.918 3.343-3.905 5.52a218.704 218.704 0 00-1.913-4.663 49.99 49.99 0 013.856-.661zm-1.844 29.367c-1.833 16.317-16.683 7.461-21.23-2.252-1.554-3.028-2.32-6.344-1.37-9.607 1.662-6.817 7.408-12.217 13.8-14.897.802-.163 2.176-1.374 2.397-.148 3.603 8.492 6.987 17.55 6.403 26.904z"/></svg>